<?xml version="1.0" standalone="no"?>
<!DOCTYPE svg PUBLIC "-//W3C//DTD SVG 20010904//EN"
 "http://www.w3.org/TR/2001/REC-SVG-20010904/DTD/svg10.dtd">
<svg version="1.0" xmlns="http://www.w3.org/2000/svg"
 width="2816.000000pt" height="1536.000000pt" viewBox="0 0 2816.000000 1536.000000"
 preserveAspectRatio="xMidYMid meet">

<g transform="translate(0.000000,1536.000000) scale(0.100000,-0.100000)"
fill="#000000" stroke="none">
<path d="M13500 11840 c-121 -19 -141 -22 -340 -64 -231 -49 -513 -136 -720
-224 -404 -171 -787 -408 -1085 -671 -539 -475 -870 -926 -1145 -1561 -246
-566 -368 -1248 -331 -1842 25 -405 97 -807 198 -1107 283 -845 802 -1564
1518 -2103 523 -393 1138 -655 1676 -712 303 -32 445 -30 759 14 549 77 1055
322 1444 700 231 224 371 413 500 672 156 314 231 643 230 1013 -1 202 -18
323 -81 585 -49 203 -89 316 -166 460 -259 490 -560 788 -1287 1276 -304 204
-452 315 -538 404 -46 47 -90 97 -98 113 -8 15 -16 27 -19 27 -11 0 -81 -141
-102 -207 -46 -146 -38 -302 23 -430 42 -87 179 -218 344 -328 137 -92 468
-329 550 -394 439 -350 669 -705 766 -1181 30 -148 45 -450 26 -547 -6 -32
-19 -96 -27 -143 -36 -191 -135 -427 -252 -604 -90 -136 -301 -351 -463 -473
-151 -113 -390 -237 -580 -300 -409 -136 -847 -147 -1260 -32 -158 43 -362
119 -515 191 -365 172 -791 483 -1056 770 -62 68 -116 125 -119 128 -16 14
-144 175 -191 240 -191 264 -401 661 -502 950 -31 88 -99 324 -122 425 -54
230 -87 566 -86 868 1 285 3 292 51 185 104 -233 209 -405 359 -588 109 -133
268 -291 368 -368 376 -286 723 -435 1159 -497 96 -14 193 -25 215 -25 38 0
41 2 36 23 -18 72 -30 214 -31 367 l-1 175 -56 7 c-326 41 -701 191 -937 375
-223 174 -408 397 -526 633 -240 483 -268 974 -84 1475 147 401 511 807 1076
1202 98 68 135 101 178 157 163 214 351 391 624 588 174 125 392 239 623 324
65 24 130 51 145 59 l27 14 -30 -1 c-16 0 -82 -8 -145 -18z"/>
<path d="M14480 6913 c-1 -183 -13 -252 -66 -367 -74 -163 -71 -147 -37 -197
90 -131 126 -245 126 -399 -1 -208 -54 -334 -207 -485 -104 -103 -187 -154
-311 -190 -230 -66 -503 -57 -755 25 -209 69 -357 140 -535 258 -118 78 -127
84 -273 216 -168 151 -334 346 -415 488 -35 60 -54 73 -157 105 -164 50 -586
271 -672 351 -16 14 -28 21 -28 14 0 -37 186 -466 238 -550 16 -26 44 -73 61
-105 140 -250 419 -580 671 -794 163 -138 250 -207 310 -245 213 -136 506
-266 730 -323 439 -112 883 -68 1239 121 240 127 454 346 557 570 138 299 161
639 63 928 -58 169 -111 267 -231 424 -45 59 -282 272 -302 272 -3 0 -6 -53
-6 -117z"/>
</g>
</svg>
